<?xml version="1.0" standalone="no"?>
<!DOCTYPE svg PUBLIC "-//W3C//DTD SVG 20010904//EN"
 "http://www.w3.org/TR/2001/REC-SVG-20010904/DTD/svg10.dtd">
<svg version="1.0" xmlns="http://www.w3.org/2000/svg"
 width="700.000000pt" height="700.000000pt" viewBox="0 0 700.000000 700.000000"
 preserveAspectRatio="xMidYMid meet">
<metadata>
Created by potrace 1.11, written by Peter Selinger 2001-2013
</metadata>
<g transform="translate(0.000000,700.000000) scale(0.100000,-0.100000)"
fill="#000000" stroke="none">
<path d="M2250 6884 c-27 -6 -61 -19 -77 -29 -35 -23 -1464 -1451 -1487 -1486
-9 -15 -21 -42 -26 -60 -11 -36 -14 -4766 -4 -4829 27 -162 145 -295 314 -352
l65 -22 2430 0 c1337 -1 2459 3 2495 7 130 16 264 106 329 221 67 117 62 -153
62 3161 0 3305 4 3056 -61 3170 -61 107 -193 201 -310 221 -74 13 -3674 11
-3730 -2z m3599 -3384 l-1 -2890 -2348 0 -2348 0 0 2185 c1 1602 4 2185 12
2186 6 0 232 1 501 1 334 1 506 5 540 13 54 12 146 55 173 80 104 96 151 171
171 275 6 34 10 227 10 510 0 250 0 472 1 493 l0 37 1644 0 1645 0 0 -2890z"/>
<path d="M2760 4481 c-133 -42 -217 -121 -261 -247 -25 -69 -28 -133 -12 -214
7 -36 15 -81 18 -100 4 -19 8 -42 10 -50 2 -8 7 -31 10 -50 26 -157 98 -260
223 -318 50 -24 69 -27 152 -27 83 1 102 4 153 29 68 33 132 94 169 162 16 31
36 98 52 179 14 72 29 146 33 165 23 114 -5 258 -63 325 -14 17 -29 35 -32 41
-14 23 -109 82 -157 99 -71 25 -225 27 -295 6z"/>
<path d="M2320 3286 c-96 -35 -187 -68 -201 -74 -28 -11 -56 -48 -63 -84 -2
-12 -16 -77 -31 -143 -14 -66 -35 -165 -46 -220 -12 -55 -29 -136 -39 -180
l-17 -80 974 0 c535 0 973 1 973 1 0 1 -18 87 -39 190 -94 451 -98 466 -123
490 -21 22 -395 164 -429 164 -8 0 -97 -84 -199 -186 l-184 -185 -183 183
c-100 101 -190 184 -200 185 -10 1 -97 -26 -193 -61z"/>
<path d="M2006 1957 c-89 -21 -109 -139 -34 -202 l30 -25 1495 0 c1386 0 1497
1 1524 17 78 47 69 171 -16 208 -26 11 -2952 13 -2999 2z"/>
<path d="M2060 1330 c-73 -6 -103 -21 -124 -63 -26 -55 -7 -121 47 -152 29
-17 72 -18 791 -19 419 -1 777 2 796 6 20 4 47 20 64 39 25 28 28 37 23 82 -3
41 -11 56 -36 79 -17 16 -43 28 -59 29 -173 3 -1453 3 -1502 -1z"/>
</g>
</svg>
